# xmcd
#
# Track frame offsets: 
#        183
#        12438
#        26658
#        44883
#        57670
#        70783
#        86763
#        106308
#        124983
#        139683
#        155983
#        175533
#        191958
#        204183
#
# Disc length: 2909 seconds
#
# Revision: 0
# Processed by: cddbd v1.5.2PL0 Copyright (c) Steve Scherf et al.
# Submitted via: ExactAudioCopy v0.99pb3
#
DISCID=d10b5b0e
DTITLE=Roadrunners - Jump Children
DYEAR=1995
DGENRE=Blues
TTITLE0=I Can't Stop It
TTITLE1=White Knuckle Love Affair
TTITLE2=I Like Drinkin' Too
TTITLE3=Nightcrawler
TTITLE4=Skid Row Blues
TTITLE5=Peg Leg Joe's
TTITLE6=The Walk
TTITLE7=Boxed Into A Corner
TTITLE8=Jump Children
TTITLE9=Walk That Walk
TTITLE10=I Love My Sugar
TTITLE11=Ho Ho Ho
TTITLE12=Let's Party
TTITLE13=I Done Done It
EXTD=
EXTT0=
EXTT1=
EXTT2=
EXTT3=
EXTT4=
EXTT5=
EXTT6=
EXTT7=
EXTT8=
EXTT9=
EXTT10=
EXTT11=
EXTT12=
EXTT13=
PLAYORDER=
